<?xml version="1.0" encoding="utf-8"?>
<svg xmlns="http://www.w3.org/2000/svg" viewBox="0 0 48 48">
	<!--path fill="#3C7CCF" d="M30.299,24.577l-8.377-4.574c0.559-0.62,1.424-1.76,1.85-3.403c0.197-0.758,0.253-1.442,0.253-1.996
		c0-0.298-0.001-0.596-0.001-0.894c-3.038-0.865-6.077-1.731-9.115-2.596c-2.178,2.185-4.356,4.37-6.535,6.554
		c-0.863,0.206-2.474,0.723-3.901,2.112c-0.608,0.592-1.034,1.197-1.331,1.708v0c-0.387,0.653-1.404,2.567-1.081,5.065
		c0.49,3.784,3.642,5.706,4.057,5.95c3.892-1.39,7.785-2.781,11.677-4.171l8.673,4.735c2.074,1.132,4.68,0.383,5.822-1.673
		C33.64,28.967,32.748,25.914,30.299,24.577z"/-->
	<path fill="#8FBFFF" d="M13.956,15.732c-0.642-1.152-0.155-2.62,1.097-3.153c1.088-0.463,2.356,0.065,2.929,1.093l0.669,1.2
		c1.561,2.802,5.885,1.376,5.326-1.705c-0.003-0.019-0.007-0.037-0.01-0.056c-0.603-3.205-3.184-5.805-6.414-6.418
		c-5.223-0.991-9.789,2.952-9.789,7.952c0,0.257,0.013,0.512,0.037,0.762c0.107,1.102,0.518,2.154,1.058,3.123l3.208,5.758
		c0.549,0.985,0.373,2.272-0.527,2.959c-0.425,0.325-0.914,0.476-1.395,0.476c-0.798,0-1.571-0.418-1.984-1.16l-0.767-1.377
		c-1.527-2.741-5.849-1.312-5.29,1.77C2.112,27,2.12,27.043,2.128,27.086c0.625,3.174,3.196,5.737,6.399,6.345
		c5.223,0.991,9.789-2.952,9.789-7.952c0-0.257-0.013-0.512-0.037-0.762c-0.107-1.102-0.518-2.153-1.057-3.122L13.956,15.732z"/>
	<path fill="#4A99FF" d="M34.01,4.694C33.152,3.087,31.484,2,29.53,2h-0.296c-3.766,0-6.119,4.043-4.236,7.277l9.571,16.438
		c2.644,4.542-0.661,10.219-5.949,10.219H9.484c-3.766,0-6.128,4.035-4.259,7.278l0,0C6.083,44.866,7.798,46,9.752,46l19.727,0
		c12.7,0,20.636-13.635,14.285-24.542C39.868,14.767,36.15,8.379,34.01,4.694z"/>
</svg>
