<?xml version="1.0" encoding="utf-8"?>
<!-- Generator: Adobe Illustrator 25.2.3, SVG Export Plug-In . SVG Version: 6.00 Build 0)  -->
<svg version="1.1" id="Слой_1" xmlns="http://www.w3.org/2000/svg" xmlns:xlink="http://www.w3.org/1999/xlink" x="0px" y="0px"
	 width="48px" height="48px" viewBox="0 0 48 48" style="enable-background:new 0 0 48 48;" xml:space="preserve">
<style type="text/css">
	.st0{fill:#6FA2FF;}
	.st1{fill:#6F90FF;stroke:#1A9BFF;stroke-width:7;stroke-linejoin:bevel;stroke-miterlimit:10;}
	.st2{fill:none;stroke:#008DD4;stroke-width:7;stroke-linejoin:bevel;stroke-miterlimit:10;}
</style>
<path class="st0" d="M15.1,18.1c0,0.2,0.2,0.4,0.4,0.4c0.2,0,0.4-0.2,0.4-0.4s-0.2-0.4-0.4-0.4C15.2,17.7,15.1,17.9,15.1,18.1z"/>
<path class="st0" d="M26.5,35.2c-0.4-0.2-10-4.9-12.7-6.3l3.2-6.2c2.7,1.4,12.5,6.2,12.6,6.3L26.5,35.2z"/>
<g>
	<circle class="st0" cx="8.5" cy="27.8" r="0.4"/>
	<path class="st0" d="M25.8,5.4l-6.1,0.2l-2.2,4c3.1,0.8,5.5,3.1,6.3,6.2l13.2,21.5H10.5l0.6-1.1c-0.8,0.3-1.8,0.4-2.7,0.4
		c-1.7,0-3.4-0.5-4.7-1.4l-2.1,3.9l3.1,5.2h38.7l3-5.3L25.8,5.4z"/>
</g>
<circle class="st1" cx="8.5" cy="27.8" r="3.8"/>
<circle class="st2" cx="15.4" cy="18.1" r="3.8"/>
</svg>
